<svg id="Capa_1" enable-background="new 0 0 512 512" height="512" viewBox="0 0 512 512" width="512" xmlns="http://www.w3.org/2000/svg"><g id="XMLID_1442_"><path id="XMLID_1477_" d="m408 448h-304c-22.091 0-40-17.909-40-40v-304c0-22.091 17.909-40 40-40h304c22.091 0 40 17.909 40 40v304c0 22.091-17.909 40-40 40z" fill="#80b6ff"/><path id="XMLID_1474_" d="m116 116h280v280h-280z" fill="#fff"/><g id="XMLID_464_"><path id="XMLID_465_" d="m256 386c-2.63 0-5.21 1.07-7.07 2.93s-2.93 4.44-2.93 7.07c0 2.64 1.07 5.21 2.93 7.07 1.86 1.87 4.44 2.93 7.07 2.93s5.21-1.06 7.07-2.93c1.86-1.86 2.93-4.43 2.93-7.07 0-2.63-1.07-5.21-2.93-7.07s-4.44-2.93-7.07-2.93z"/><path id="XMLID_466_" d="m396 106h-280c-5.523 0-10 4.477-10 10v280c0 5.523 4.477 10 10 10h95c5.523 0 10-4.477 10-10s-4.477-10-10-10h-85v-260h260v260h-85c-5.523 0-10 4.477-10 10s4.477 10 10 10h95c5.523 0 10-4.477 10-10v-280c0-5.523-4.477-10-10-10z"/><path id="XMLID_469_" d="m502 201c5.523 0 10-4.477 10-10s-4.477-10-10-10h-44v-45h44c5.523 0 10-4.477 10-10s-4.477-10-10-10h-44v-12c0-27.57-22.43-50-50-50h-12v-44c0-5.523-4.477-10-10-10s-10 4.477-10 10v44h-45v-44c0-5.523-4.477-10-10-10s-10 4.477-10 10v44h-45v-44c0-5.523-4.477-10-10-10s-10 4.477-10 10v44h-45v-44c0-5.523-4.477-10-10-10s-10 4.477-10 10v44h-45v-44c0-5.523-4.477-10-10-10s-10 4.477-10 10v44h-12c-27.57 0-50 22.43-50 50v12h-44c-5.523 0-10 4.477-10 10s4.477 10 10 10h44v45h-44c-5.523 0-10 4.477-10 10s4.477 10 10 10h44v45h-44c-5.523 0-10 4.477-10 10s4.477 10 10 10h44v45h-44c-5.523 0-10 4.477-10 10s4.477 10 10 10h44v45h-44c-5.523 0-10 4.477-10 10s4.477 10 10 10h44v12c0 27.57 22.43 50 50 50h12v44c0 5.523 4.477 10 10 10s10-4.477 10-10v-44h45v44c0 5.523 4.477 10 10 10s10-4.477 10-10v-44h45v44c0 5.523 4.477 10 10 10s10-4.477 10-10v-44h45v44c0 5.523 4.477 10 10 10s10-4.477 10-10v-44h45v44c0 5.523 4.477 10 10 10s10-4.477 10-10v-44h12c27.57 0 50-22.43 50-50v-12h44c5.523 0 10-4.477 10-10s-4.477-10-10-10h-44v-45h44c5.523 0 10-4.477 10-10s-4.477-10-10-10h-44v-45h44c5.523 0 10-4.477 10-10s-4.477-10-10-10h-44v-45zm-64 207c0 16.542-13.458 30-30 30h-304c-16.542 0-30-13.458-30-30v-304c0-16.542 13.458-30 30-30h304c16.542 0 30 13.458 30 30z"/><path id="XMLID_470_" d="m184.898 202h142.204c5.523 0 10-4.477 10-10s-4.477-10-10-10h-142.204c-5.523 0-10 4.477-10 10s4.477 10 10 10z"/><path id="XMLID_471_" d="m184.898 266h142.204c5.523 0 10-4.477 10-10s-4.477-10-10-10h-142.204c-5.523 0-10 4.477-10 10s4.477 10 10 10z"/><path id="XMLID_472_" d="m184.898 330h142.204c5.523 0 10-4.477 10-10s-4.477-10-10-10h-142.204c-5.523 0-10 4.477-10 10s4.477 10 10 10z"/></g></g></svg>